# xmcd CD database file generated by freedbAccess_ocx
#
# Track frame offsets:
#       150
#       16523
#       33278
#       48310
#       61974
#       74526
#       97582
#       109501
#       126363
#       139962
#       156165
#       173126
#
# Disc length: 2567 seconds
#
# Revision: 0
# Processed by: cddbd v1.5.1PL2 Copyright (c) Steve Scherf et al.
# Submitted via: CDnGo 2.00
#
DISCID=950a050c
DTITLE=Susie Hopman - Cowboy Jazz
DYEAR=2004
DGENRE=Nashville Country
TTITLE0=How Come You Go To Her
TTITLE1=Here Comes Trouble
TTITLE2=The Night Has No Mercy
TTITLE3=That Hits The Spot
TTITLE4=Cowboy Jazz
TTITLE5=Surround Me With Love
TTITLE6=Lately
TTITLE7=You Got Me Looking
TTITLE8=Brand New Day
TTITLE9=Radio Heart
TTITLE10=Somethin's Out There
TTITLE11=I Was Wearing White
EXTD=
EXTT0=
EXTT1=
EXTT2=
EXTT3=
EXTT4=
EXTT5=
EXTT6=
EXTT7=
EXTT8=
EXTT9=
EXTT10=
EXTT11=
PLAYORDER=
